<?xml version="1.0" encoding="utf-8"?>
<!-- Generator: Adobe Illustrator 25.4.1, SVG Export Plug-In . SVG Version: 6.00 Build 0)  -->
<svg version="1.1" id="Layer_1" xmlns="http://www.w3.org/2000/svg" xmlns:xlink="http://www.w3.org/1999/xlink" x="0px" y="0px"
	 width="1440px" height="257px" viewBox="0 0 1440 257" style="enable-background:new 0 0 1440 257;" xml:space="preserve">
<style type="text/css">
	.st0{opacity:0.2;fill:none;stroke:#C3C8D0;stroke-width:3;enable-background:new    ;}
</style>
<path class="st0" d="M0,148.228c29.647,0,55.059,46.563,84.706,46.563S139.765,255,169.412,255s55.059-119.166,84.706-119.166
	S309.177,2,338.824,2C368.471,2,379.353,72,409,72s42.353,52.947,72,52.947s82.294,38.802,111.941,38.802
	c29.647,0,55.059-7.76,84.706-7.76c29.647,0,55.059,99.011,84.706,99.011c29.647,0,55.059-130.053,84.706-130.053
	c29.647,0,55.059,23.282,84.706,23.282C961.412,148.229,986.824,43,1016.47,43c29.65,0,83.38,151.791,113.03,151.791
	s39.85-46.563,69.5-46.563S1250.35,61,1280,61s25.35,33.5,55,33.5S1410.35,2,1440,2"/>
</svg>
