<svg width="1440" height="372" viewBox="0 0 1440 372" fill="none" xmlns="http://www.w3.org/2000/svg">
<path opacity="0.15" fill-rule="evenodd" clip-rule="evenodd" d="M1440 371.746V54.3982C1433.05 54.3982 1426.22 51.2073 1419.31 46.1852C1412.4 41.1648 1405.6 34.4517 1398.7 27.632L1398.65 27.582C1391.8 20.8183 1384.86 13.953 1377.75 8.78647C1370.63 3.60893 1363.17 0 1355.29 0C1347.26 0 1339.74 5.04194 1332.66 12.1012C1325.57 19.1794 1318.63 28.5843 1311.78 37.8682L1311.73 37.9318C1304.83 47.2883 1298.02 56.5177 1291.1 63.4192C1284.15 70.3557 1277.37 74.6443 1270.59 74.6443C1262.75 74.6443 1255.31 77.9257 1248.18 82.6596C1241.08 87.3799 1234.13 93.6532 1227.28 99.8323L1227.23 99.878C1220.33 106.108 1213.53 112.239 1206.63 116.824C1199.72 121.408 1192.87 124.339 1185.88 124.339C1179.06 124.339 1172.27 120.302 1165.33 113.815C1158.42 107.351 1151.61 98.7081 1144.71 89.9406L1144.66 89.8792C1137.81 81.1815 1130.87 72.3656 1123.77 65.7305C1116.69 59.1043 1109.18 54.3981 1101.18 54.3981C1093.3 54.3981 1085.84 58.0071 1078.72 63.1846C1071.61 68.3511 1064.67 75.2166 1057.82 81.9803L1057.77 82.0302C1050.87 88.8499 1044.07 95.5629 1037.16 100.583C1030.25 105.605 1023.42 108.796 1016.47 108.796C1008.51 108.796 1001.01 113.192 993.909 119.413C986.808 125.636 979.865 133.904 973.019 142.057L972.969 142.116C966.067 150.336 959.261 158.435 952.35 164.492C945.42 170.564 938.623 174.365 931.765 174.365C917.254 174.365 909.451 170.963 901.489 167.493L901.482 167.49C893.387 163.961 885.132 160.365 870 160.365C865.907 160.365 861.892 161.918 857.992 164.478C854.093 167.038 850.228 170.657 846.404 174.927C838.778 183.44 831.125 194.759 823.549 205.963L823.507 206.025C815.884 217.3 808.337 228.456 800.862 236.802C797.128 240.97 793.459 244.382 789.861 246.744C786.264 249.106 782.819 250.365 779.5 250.365C772.499 250.365 764.704 247.223 756.224 242.287C748.755 237.941 740.926 232.311 732.813 226.477C731.737 225.702 730.655 224.925 729.569 224.146C720.332 217.524 710.767 210.84 701.142 205.816C691.521 200.795 681.718 197.365 672 197.365C664.961 197.365 658.44 194.849 652.093 190.955C645.729 187.05 639.644 181.829 633.448 176.507L633.396 176.462C627.256 171.188 621.004 165.819 614.417 161.777C607.793 157.713 600.726 154.924 592.941 154.924C586.255 154.924 580.479 158.55 575.221 163.616C570.477 168.186 565.965 174.118 561.444 180.063C560.956 180.704 560.468 181.345 559.98 181.985C554.922 188.614 549.798 195.108 544.133 199.953C538.487 204.782 532.428 207.865 525.5 207.865C521.239 207.865 516.555 205.219 511.475 200.05C506.433 194.917 501.223 187.524 495.913 178.551C485.298 160.61 474.456 136.652 463.865 112.599C462.419 109.313 460.977 106.025 459.541 102.751C450.485 82.1051 441.67 62.0077 433.444 46.3935C428.68 37.3519 424.074 29.734 419.688 24.3579C417.495 21.6694 415.316 19.4907 413.155 17.9744C410.997 16.4596 408.765 15.5423 406.5 15.5423C398.349 15.5423 391.749 21.0573 386.068 28.6689C380.379 36.2907 375.323 46.4073 370.348 56.3631L370.305 56.4478C365.28 66.5027 360.334 76.3885 354.822 83.7735C349.286 91.1905 343.466 95.6945 336.794 95.6945C332.55 95.6945 328.59 97.8767 324.917 101.341C321.236 104.812 317.692 109.708 314.25 115.472C307.376 126.982 300.717 142.289 294.112 157.474L294.08 157.545C287.439 172.811 280.851 187.949 274.086 199.277C270.704 204.94 267.326 209.568 263.937 212.763C260.542 215.965 257.285 217.593 254.118 217.593C250.889 217.593 247.578 216.113 244.139 213.263C240.701 210.414 237.251 206.29 233.78 201.243C226.834 191.144 220 177.645 213.103 164.017L213.068 163.947C206.211 150.399 199.293 136.728 192.221 126.446C188.678 121.293 185.046 116.917 181.304 113.816C177.564 110.716 173.595 108.796 169.412 108.796C162.462 108.796 155.628 105.605 148.72 100.583C141.815 95.5629 135.016 88.8499 128.113 82.0302L128.062 81.9803C121.217 75.2166 114.268 68.3511 107.161 63.1846C100.04 58.0071 92.5796 54.3981 84.7059 54.3981C76.5861 54.3981 69.049 60.218 62.0037 68.2669C54.9161 76.3642 47.9852 87.1249 41.1348 97.761L41.0919 97.8273C34.1918 108.54 27.3719 119.122 20.4448 127.036C13.4607 135.016 6.70374 139.881 0 139.881V371.746C479.507 371.746 986.26 371.746 1440 371.746Z" fill="url(#paint0_linear_1305_973)"/>
<path d="M1440 55.8982C1410.35 55.8982 1384.94 1.50006 1355.29 1.50006C1325.65 1.50006 1300.24 76.1444 1270.59 76.1444C1240.94 76.1444 1215.53 125.839 1185.88 125.839C1156.24 125.839 1130.82 55.8982 1101.18 55.8982C1071.53 55.8982 1046.12 110.296 1016.47 110.296C986.824 110.296 961.412 175.865 931.765 175.865C902.118 175.865 899.647 161.865 870 161.865C840.353 161.865 809.147 251.865 779.5 251.865C749.853 251.865 709.5 198.865 672 198.865C642.353 198.865 622.588 156.424 592.941 156.424C568.5 156.424 555.147 209.365 525.5 209.365C486.5 209.365 436.147 17.0423 406.5 17.0423C376.853 17.0423 366.441 97.1945 336.794 97.1945C307.147 97.1945 283.765 219.093 254.118 219.093C224.471 219.093 199.059 110.296 169.412 110.296C139.765 110.296 114.353 55.8982 84.7059 55.8982C55.0589 55.8982 29.6471 141.381 0 141.381" stroke="#B578D2" stroke-width="3"/>
<defs>
<linearGradient id="paint0_linear_1305_973" x1="720" y1="0" x2="720" y2="371.746" gradientUnits="userSpaceOnUse">
<stop stop-color="#B578D2"/>
<stop offset="1" stop-color="#B578D2" stop-opacity="0"/>
</linearGradient>
</defs>
</svg>
