<?xml version="1.0" encoding="utf-8"?>
<!-- Generator: Adobe Illustrator 25.4.1, SVG Export Plug-In . SVG Version: 6.00 Build 0)  -->
<svg version="1.1" id="Layer_1" xmlns="http://www.w3.org/2000/svg" xmlns:xlink="http://www.w3.org/1999/xlink" x="0px" y="0px"
	 width="24px" height="45px" viewBox="0 0 24 45" style="enable-background:new 0 0 24 45;" xml:space="preserve">
<style type="text/css">
	.st0{fill:#FFFFFF;}
</style>
<path class="st0" d="M22.8,42.5H22v-8.2c0-3.9-3.6-7.1-6.2-9.3c-1-0.8-2.3-2-2.4-2.4c0.2-0.5,1.5-1.6,2.4-2.5
	c2.6-2.3,6.2-5.4,6.2-9.3V2.5h0.7c0.7,0,1.2-0.6,1.2-1.2S23.4,0,22.8,0H1.2C0.6,0,0,0.6,0,1.2s0.6,1.2,1.2,1.2h1v8.3
	c0,3.9,3.6,7.1,6.2,9.3c1,0.8,2.3,2,2.4,2.4c-0.2,0.5-1.5,1.6-2.4,2.5c-2.6,2.3-6.2,5.4-6.2,9.3v8.2h-1c-0.7,0-1.2,0.6-1.2,1.2
	C0,44.4,0.6,45,1.2,45h21.5c0.7,0,1.2-0.6,1.2-1.2C24,43.1,23.4,42.5,22.8,42.5z M10.1,18.2c-2.4-2.1-5.3-4.7-5.3-7.5V2.5h14.9v8.3
	c0,2.8-3,5.4-5.3,7.5c-0.8,0.7-1.5,1.3-2.1,1.9C11.6,19.5,10.9,18.9,10.1,18.2z M4.7,34.3c0-2.8,3-5.4,5.3-7.5
	c0.8-0.7,1.5-1.3,2.1-1.9c0.6,0.6,1.3,1.2,2.1,1.9c2.4,2.1,5.3,4.7,5.3,7.5v8.2H4.7V34.3z"/>
</svg>
